<svg width="19" height="19" viewBox="0 0 19 19" fill="none" xmlns="http://www.w3.org/2000/svg">
<g clip-path="url(#clip0_1_452)">
<path d="M15.5 3.5H3.5C2.675 3.5 2 4.175 2 5V14C2 14.825 2.675 15.5 3.5 15.5H15.5C16.325 15.5 17 14.825 17 14V5C17 4.175 16.325 3.5 15.5 3.5ZM15.5 14H3.5V5H15.5V14ZM3.5 0.5H15.5V2H3.5V0.5ZM3.5 17H15.5V18.5H3.5V17ZM9.5 9.5C10.535 9.5 11.375 8.66 11.375 7.625C11.375 6.59 10.535 5.75 9.5 5.75C8.465 5.75 7.625 6.59 7.625 7.625C7.625 8.66 8.465 9.5 9.5 9.5ZM9.5 6.875C9.9125 6.875 10.25 7.2125 10.25 7.625C10.25 8.0375 9.9125 8.375 9.5 8.375C9.0875 8.375 8.75 8.0375 8.75 7.625C8.75 7.2125 9.0875 6.875 9.5 6.875ZM13.25 12.4925C13.25 10.925 10.7675 10.25 9.5 10.25C8.2325 10.25 5.75 10.925 5.75 12.4925V13.25H13.25V12.4925ZM7.1075 12.125C7.565 11.735 8.63 11.375 9.5 11.375C10.3775 11.375 11.4425 11.735 11.9 12.125H7.1075Z" fill="#71839B"/>
<path d="M7.1075 12.125C7.565 11.735 8.63 11.375 9.5 11.375C10.3775 11.375 11.4425 11.735 11.9 12.125H7.1075Z" fill="#71839B"/>
<path d="M9.5 6.875C9.9125 6.875 10.25 7.2125 10.25 7.625C10.25 8.0375 9.9125 8.375 9.5 8.375C9.0875 8.375 8.75 8.0375 8.75 7.625C8.75 7.2125 9.0875 6.875 9.5 6.875Z" fill="#71839B"/>
</g>
<defs>
<clipPath id="clip0_1_452">
<rect width="18" height="18" fill="white" transform="translate(0.5 0.5)"/>
</clipPath>
</defs>
</svg>
