<svg width="19" height="19" viewBox="0 0 19 19" fill="none" xmlns="http://www.w3.org/2000/svg">
<g clip-path="url(#clip0_1_456)">
<mask id="mask0_1_456" style="mask-type:luminance" maskUnits="userSpaceOnUse" x="0" y="0" width="19" height="19">
<path d="M18.5 0.5H0.5V18.5H18.5V0.5Z" fill="white"/>
</mask>
<g mask="url(#mask0_1_456)">
<path fill-rule="evenodd" clip-rule="evenodd" d="M10.7606 17.8298C10.0802 17.9611 9.05196 17.976 8.3508 17.8545C8.17811 17.8247 7.99868 17.6641 7.94974 17.4959L7.49496 15.9311C7.44602 15.7629 7.28346 15.5553 7.13186 15.4678L5.48402 14.5167C5.33243 14.4292 5.07199 14.3949 4.90296 14.4402L3.35074 14.8561C3.18171 14.9014 2.95277 14.8294 2.83999 14.6958C2.4063 14.1822 1.91355 13.3267 1.68771 12.7133C1.62724 12.549 1.67646 12.3133 1.79739 12.1868L2.96458 10.9698C3.08552 10.8435 3.18396 10.5988 3.18396 10.4236V8.52097C3.18396 8.34603 3.08355 8.10331 2.9598 7.97956L1.79627 6.81631C1.67252 6.69256 1.62133 6.45884 1.6818 6.29459C1.7358 6.14806 1.93943 5.71156 2.18411 5.288C2.43414 4.85515 2.7168 4.45268 2.82368 4.32528C2.93589 4.19112 3.16511 4.11603 3.33527 4.15793L4.99577 4.56575C5.16564 4.60737 5.42693 4.57025 5.57852 4.48278L7.22608 3.53131C7.37768 3.44384 7.53771 3.23544 7.58299 3.0664L8.00261 1.50012C8.04789 1.33109 8.2248 1.17022 8.39749 1.14097C9.03171 1.03409 10.0085 1.03493 10.6596 1.15193C10.8317 1.18287 11.0083 1.34515 11.0536 1.51418L11.4696 3.0664C11.5149 3.23544 11.6749 3.44384 11.8262 3.53131L13.4741 4.48278C13.6256 4.57025 13.8861 4.60456 14.0551 4.55928L15.6073 4.14331C15.7764 4.09803 16.0053 4.16975 16.1181 4.30334C16.5703 4.83884 17.0732 5.72281 17.3024 6.36462C17.3612 6.52972 17.3086 6.764 17.1849 6.88775L16.0928 7.97956C15.969 8.10331 15.8686 8.34603 15.8686 8.52097V10.4236C15.8686 10.5988 15.969 10.8413 16.0928 10.965L17.2012 12.0734C17.3249 12.1972 17.3781 12.4317 17.3199 12.5968C17.2555 12.7797 17.0386 13.2527 16.774 13.7114C16.5239 14.1443 16.2413 14.5467 16.1344 14.6744C16.0219 14.8083 15.7932 14.8806 15.6242 14.8353L14.1496 14.4402C13.9803 14.3949 13.7201 14.4292 13.5686 14.5167L11.9207 15.4678C11.7691 15.5553 11.6094 15.7637 11.5641 15.9327L11.154 17.4633C11.1087 17.6323 10.9324 17.7966 10.7606 17.8298ZM5.69355 9.49972C5.69355 7.39934 7.39849 5.69412 9.49886 5.69412C11.599 5.69412 13.3042 7.39934 13.3042 9.49972C13.3042 11.5998 11.599 13.305 9.49886 13.305C7.39849 13.305 5.69355 11.5998 5.69355 9.49972Z" fill="#71839B"/>
</g>
</g>
<defs>
<clipPath id="clip0_1_456">
<rect width="18" height="18" fill="white" transform="translate(0.5 0.5)"/>
</clipPath>
</defs>
</svg>
