<svg width="17" height="12" viewBox="0 0 17 12" fill="none" xmlns="http://www.w3.org/2000/svg">
<path d="M8.50024 0C4.6365 0 1.33686 2.40325 0 5.79562C1.33686 9.18799 4.6365 11.5912 8.50024 11.5912C12.3679 11.5912 15.6636 9.18799 17.0005 5.79562C15.6636 2.40325 12.3679 0 8.50024 0ZM8.50024 9.65937C6.36746 9.65937 4.6365 7.92841 4.6365 5.79562C4.6365 3.66283 6.36746 1.93187 8.50024 1.93187C10.633 1.93187 12.364 3.66283 12.364 5.79562C12.364 7.92841 10.633 9.65937 8.50024 9.65937ZM8.50024 3.47737C7.22134 3.47737 6.182 4.51672 6.182 5.79562C6.182 7.07452 7.22134 8.11387 8.50024 8.11387C9.77914 8.11387 10.8185 7.07452 10.8185 5.79562C10.8185 4.51672 9.77914 3.47737 8.50024 3.47737Z" fill="#707680"/>
</svg>
